<?xml version="1.0" encoding="UTF-8"?>
<svg id="Livello_1" data-name="Livello 1" xmlns="http://www.w3.org/2000/svg" viewBox="0 0 1080 1080">
  <defs>
    <style>
      .cls-1 {
        fill: #333;
        stroke-width: 0px;
      }
    </style>
  </defs>
  <g id="dsz8FS">
    <g>
      <path class="cls-1" d="M363.47,434.21c-13.02,1.6-25.34,3.1-37.67,4.62-16.81,2.08-33.61,4.23-50.43,6.23-6.49.77-10.17-1.88-11.28-8.15-7.76-44.09-15.45-88.19-23.11-132.29-1.05-6.05,1.22-9.62,7.33-11.38,40.38-11.61,80.54-24.09,121.26-34.35,25.03-6.31,50.92-9.19,76.43-13.6,7.86-1.36,15.73-2.69,23.59-4.09,7.56-1.35,10.32.06,13.25,6.97,10.31,24.31,31.98,39.17,57.14,39.19,25.19.01,46.89-14.82,57.2-39.11,2.82-6.65,5.64-8.43,12.05-7.32,32.6,5.64,65.43,10.24,97.71,17.31,27.5,6.03,54.37,14.9,81.51,22.57,14.41,4.07,28.82,8.19,43.19,12.41,6.33,1.86,8.46,5.45,7.34,11.9-7.56,43.33-15.12,86.66-22.75,129.98-1.57,8.92-4.73,10.88-13.81,9.71-26.46-3.39-52.93-6.66-79.4-9.95-1.91-.24-3.84-.22-6.45-.35v6.56c0,34.69,0,69.37,0,104.06,0,1.75.11,3.52-.07,5.26-.54,4.96-4.33,8.51-8.95,8.2-4.95-.34-7.81-3.2-8.45-8.09-.25-1.92-.09-3.89-.09-5.84,0-87.5,0-174.99,0-262.49v-7.78c-17.26-3-34.39-5.97-51.46-8.94-37.64,98.86-176.66,99.47-215.02.03-16.95,2.92-33.97,5.86-51.2,8.83v547.05h258.1c-8.72-7.49-18.66-14.45-26.66-23.18-35.37-38.61-46.07-83.73-29.03-133.17,16.96-49.17,52.95-78.62,104.25-87.23,72.99-12.25,142.12,41.14,150.37,114.9,8.72,77.96-51.31,146.23-129.68,146.49-111.26.38-222.51.11-333.77.09-8.72,0-11.43-2.95-11.43-12.29,0-128.22,0-256.45,0-384.67,0-2.49,0-4.97,0-8.1ZM293.44,298.6c7.21,41.46,14.3,82.2,21.53,123.76,16.32-1.99,32.23-3.94,48.24-5.89v-137.78c-23.34,6.66-46.26,13.2-69.77,19.91ZM786.6,298.59c-23.33-6.66-46.38-13.23-69.73-19.89v137.74c16.14,1.95,32.04,3.88,48.22,5.84,7.24-41.65,14.33-82.4,21.51-123.69ZM707.98,661.22c6.23,0,12.47.26,18.67-.14,2.16-.14,4.87-1.39,6.19-3.05,5.09-6.38,9.9-13,14.39-19.81,1.15-1.74,1.51-4.74.92-6.78-2.93-10.07-6.13-20.06-9.66-29.94-.68-1.92-2.98-4.11-4.93-4.59-17.28-4.25-34.66-4.39-51.92.17-1.79.47-3.88,2.46-4.52,4.23-3.05,8.39-5.25,17.11-8.53,25.4-2.41,6.09-.96,10.32,2.35,15.82,8.64,14.37,18.74,24.2,37.04,18.68ZM634.93,645.49c-7.57,0-12.64.21-17.68-.07-3.55-.2-5.63,1.05-7.44,4.14-8.8,15.01-14.06,31.13-15.41,48.45-.15,1.96,1.29,4.78,2.9,6.03,8.3,6.42,16.8,12.6,25.47,18.52,1.74,1.19,4.71,1.73,6.74,1.17,7.86-2.14,15.64-4.64,23.27-7.49,1.96-.73,4-2.97,4.72-4.98,3.27-9.14,5.43-18.72,9.25-27.6,3.74-8.68,2.09-14.87-3.24-22.62-7.9-11.49-15.8-20.09-28.57-15.55ZM783.53,645.49c-15.29-4.23-24.65,3.05-31.3,15.91-1.24,2.39-3.57,4.24-4.63,6.68-.97,2.23-1.73,5.14-1.13,7.35,2.25,8.23,5.87,16.14,7.55,24.46,2.38,11.79,8.33,18.8,20.58,20.36,3.97.5,7.71,2.67,11.66,3.59,1.82.42,4.37.31,5.81-.69,9.11-6.31,18.07-12.83,26.88-19.56,1.35-1.03,2.41-3.52,2.27-5.23-1.3-16.5-6.24-31.9-14.04-46.51-2.65-4.96-5.79-7.15-11.42-6.46-4.02.49-8.16.1-12.24.1ZM698.99,775c0-3.31-.32-6.65.08-9.91.56-4.66-1.39-7.38-5.14-9.95-9.62-6.59-19.03-13.5-28.33-20.53-2.83-2.14-5.25-2.43-8.51-1.25-6.94,2.5-13.98,4.72-21.05,6.83-3.24.97-5.16,2.53-6.17,6.01-2.83,9.69-5.98,19.29-9.35,28.8-1.14,3.22-.65,5.32,1.58,7.79,10.81,12.01,23.5,21.37,37.99,28.52,5.06,2.5,8.8,2.34,13.02-1.44,3.89-3.48,8.16-6.71,12.71-9.25,10.23-5.71,16.85-12.93,13.18-25.64ZM716.57,774.93c0,3.31.26,6.64-.06,9.91-.42,4.3.94,7.09,4.7,9.58,8.1,5.36,15.88,11.21,23.61,17.1,2.67,2.03,4.84,2.28,7.92.92,15.92-7.01,29.67-16.96,40.93-30.19,1.29-1.52,1.9-4.62,1.34-6.56-2.91-10.07-6.11-20.06-9.67-29.92-.77-2.12-3.12-4.34-5.27-5.16-7.24-2.79-14.63-5.26-22.13-7.22-2.35-.61-5.71.03-7.77,1.38-7.15,4.68-13.58,10.53-20.94,14.8-10.12,5.86-15.89,13.18-12.66,25.36ZM628.85,262.26c-4.24-.73-8.18-.95-11.81-2.14-4.31-1.41-5.97.35-8.03,3.89-15.33,26.37-38.41,40.71-68.9,40.71-30.72,0-53.87-14.44-69.38-41.01-.85-1.46-1.75-2.9-2.66-4.41-5.77,1.05-11.22,2.04-16.72,3.04,9.97,32.67,48.89,59.38,86.84,60.05,39.43.7,78.7-25.08,90.67-60.14ZM707.78,743.6c10.72-7.77,21.18-15.21,31.41-22.96,1.2-.91,1.97-3.75,1.51-5.27-3.3-10.98-7.04-21.83-10.46-32.78-.9-2.88-2.37-3.88-5.41-3.84-11.49.17-22.98-.07-34.46.23-1.67.04-4.22,1.89-4.78,3.47-3.83,10.81-7.38,21.72-10.64,32.72-.48,1.62.45,4.65,1.77,5.66,10.05,7.67,20.36,15,31.06,22.78ZM297.44,424.44c-7.05-40.55-13.98-80.47-21.02-120.96-6.04,1.75-11.49,3.32-16.9,4.89,6.96,39.95,13.75,78.94,20.61,118.38,5.98-.79,11.28-1.5,17.3-2.3ZM799.93,426.65c6.92-39.8,13.7-78.81,20.57-118.33-5.68-1.62-11.01-3.14-16.9-4.82-7.03,40.48-13.97,80.4-21.01,120.95,6.04.77,11.35,1.44,17.34,2.2ZM690.21,819.07c.12.49.24.98.36,1.47h34.56c.07-.49.14-.98.22-1.47-5.8-4.22-11.59-8.43-17.55-12.76-5.98,4.34-11.79,8.55-17.59,12.76ZM605.15,758.99c.72-.11,1.45-.23,2.17-.34,2-6.04,4.09-12.05,5.92-18.14.3-1.01-.16-2.87-.94-3.47-5.3-4.09-10.77-7.96-16.19-11.89-.55.35-1.1.7-1.64,1.05,3.56,10.93,7.12,21.86,10.68,32.8ZM808.24,758.76l2.13.38c3.57-11.03,7.14-22.06,10.7-33.09-.53-.28-1.06-.57-1.59-.85-5.31,3.83-10.71,7.54-15.83,11.6-.95.75-1.42,3.07-1.06,4.37,1.68,5.92,3.73,11.74,5.65,17.6ZM656.5,607.27c-.52-.48-1.04-.96-1.57-1.44-9.17,6.73-18.34,13.46-27.51,20.18.31.62.62,1.24.93,1.86,6.33,0,12.67.12,18.99-.11,1.16-.04,2.88-1.33,3.28-2.42,2.15-5.96,3.96-12.03,5.89-18.07ZM760.52,605.83c-.49.48-.98.97-1.46,1.45,1.93,6.05,3.81,12.12,5.86,18.13.32.94,1.43,2.26,2.21,2.28,6.79.18,13.58.1,20.37.1.2-.67.39-1.33.59-2-9.19-6.65-18.37-13.31-27.56-19.96Z"/>
      <path class="cls-1" d="M602.68,380.38c10.7,0,21.4-.04,32.11,0,8.77.04,11.73,2.84,11.6,11.45-.21,14.18.76,28.58-1.34,42.49-3.27,21.69-16.68,36.36-37.28,43.95-2.99,1.1-7.01,1.04-10.09.06-22.1-7.04-38.23-28.54-38.87-51.72-.33-12.06-.17-24.13-.08-36.19.05-6.78,3.19-9.92,10.09-10.01,11.28-.14,22.57-.04,33.86-.04ZM576.4,398.26c0,10.27-.67,19.85.16,29.3,1.3,14.85,9.11,25.86,22.54,32.48,1.9.94,5.04.95,6.95.02,11.33-5.48,19.41-14.4,21.38-26.8,1.8-11.38,1.36-23.12,1.91-35h-52.94Z"/>
    </g>
  </g>
</svg>