<?xml version="1.0" encoding="UTF-8"?>
<svg id="Livello_1" data-name="Livello 1" xmlns="http://www.w3.org/2000/svg" viewBox="0 0 1080 1080">
  <defs>
    <style>
      .cls-1 {
        fill: #333;
        stroke-width: 0px;
      }
    </style>
  </defs>
  <g id="UitvvD">
    <g>
      <path class="cls-1" d="M325.75,278.21c3.07,1.2,5.3,1.59,6.94,2.79,22.88,16.78,48.33,17.06,73.88,9.59,17.43-5.1,34.07-13.04,50.77-20.36,8.19-3.59,10.62-4.04,17.27,1.55,40.54,34.03,90.26,33.99,131.05-.28,5.28-4.44,10.08-5.12,16.22-1.66,23.59,13.28,48.38,23.17,75.79,24.85,17.28,1.06,33.43-2.26,47.84-12.49,7.27-5.16,12.15-4.29,17.42,2.89,8.58,11.68,17.05,23.43,25.45,35.23,4.52,6.35,4.01,11.3-1.59,16.34-27.27,24.56-35.48,55.8-31.09,90.98,4.52,36.21,21.12,67.55,41.02,97.4,1.54,2.3,3.15,4.55,4.72,6.83,5.27,7.65,5.1,11.31-.89,18.14-5.06,5.77-9.85,11.82-15.3,17.18-4.09,4.03-4.71,8.21-4.35,13.7,2.97,46.07-7.6,88.45-36.11,125.4-24.7,32.01-57.85,52.14-96.03,63.36-21.95,6.45-44.87,9.55-67.32,14.36-2.94.63-6.03,1.94-8.37,3.8-8.17,6.49-16.03,13.39-24.04,20.09-7.18,6-10.92,6.02-17.96.12-7.03-5.88-14.35-11.46-20.94-17.8-5.13-4.94-10.95-6.57-17.71-7.35-34.73-4.01-68.31-12.3-99.33-28.92-56.6-30.32-87.74-77.8-93.68-141.61-1.08-11.6,0-23.38-.31-35.07-.07-2.67-1.1-5.79-2.76-7.85-5.34-6.64-11.18-12.87-16.81-19.27-6.08-6.92-6.36-10.62-1.1-18.1,16.61-23.63,30.93-48.47,39.64-76.19,7.67-24.41,10.39-49.13,3.35-74.22-4.96-17.67-14.21-32.7-28.02-44.88-5.78-5.09-6.42-9.92-1.93-16.24,8.51-11.99,17.03-23.97,25.91-35.69,2.14-2.82,5.68-4.57,8.36-6.65ZM313.53,325.87c.41.89.5,1.34.77,1.63,28.21,30.9,36.52,67.4,30.26,107.95-4.93,31.94-18.41,60.49-35.06,87.76-3.42,5.6-9.94,11.57-9.36,16.74.63,5.62,7.51,10.87,12.33,15.61,6.52,6.42,10.45,13.19,7.74,22.71-.85,3-.56,6.35-.61,9.55-1.14,68.71,27.2,119.97,89.66,150.77,30.21,14.9,62.74,21.15,95.89,25.03,3.93.46,8.11,2.46,11.31,4.89,8.1,6.14,15.7,12.93,23.61,19.55,8.42-7.06,16.26-13.96,24.49-20.34,2.69-2.08,6.31-3.67,9.67-4.06,28.45-3.23,56.37-8.48,83.15-19.03,79.1-31.15,110.05-99.13,102.03-172.08-.39-3.55,1.22-7.99,3.35-10.99,4.04-5.71,8.83-10.98,13.88-15.85,4.15-3.99,4-6.84,1.07-11.83-10-17.04-20.36-34.04-28.41-52.03-14.28-31.93-20.4-65.35-12.39-100.28,4.82-21.03,14.92-39.24,29.94-55.27-5.43-7.52-10.73-14.86-16.1-22.29-20.65,11.26-42.07,13.76-64.4,10.79-23.29-3.1-44.97-11.03-65.73-21.71-3.02-1.56-5.26-2.17-8.55.2-46.28,33.35-98.08,33.35-144.06.09-2.84-2.05-4.85-2.16-7.97-.66-9.01,4.31-18.08,8.6-27.42,12.1-22.99,8.62-46.67,13.99-71.31,9.74-10.94-1.89-21.5-5.93-32.96-9.21-4.58,6.34-9.78,13.54-14.83,20.52Z"/>
      <path class="cls-1" d="M539.79,513.32c-59.89,0-119.77,0-179.66,0-1.7,0-3.41.03-5.11-.01-10.72-.3-14.62-8.08-9.51-17.54,8.89-16.43,18.71-32.58,25.46-49.89,13.3-34.12,13.08-68.17-5.64-101-1.64-2.87-1.5-8.43.27-11.11,1.78-2.69,6.9-5.09,10.12-4.62,30.33,4.43,58.92-1.77,86.65-13.32,6.52-2.71,11.74-2.39,18.01.95,39.34,20.94,79.07,21.22,118.51.38,6.96-3.68,12.7-4,19.79-1,24.43,10.31,49.79,16.08,76.53,13.89,2.54-.21,5.08-.54,7.59-.98,4.81-.84,8.96.16,11.86,4.31,2.93,4.18,2.18,8.33-.27,12.57-12.15,21.01-16.34,43.59-13.44,67.66,3.01,25.03,12.63,47.57,25.22,69.06,2.58,4.41,6.05,8.4,7.97,13.05,1.48,3.59,2.33,8.21,1.38,11.84-1.26,4.86-6.16,5.79-10.97,5.78-34.1-.05-68.2-.02-102.3-.02-27.49,0-54.99,0-82.48,0ZM707.18,492.19c-25.12-44.43-37.74-90.21-19.35-140.39-26.66,0-51.16-5.76-75-14.95-1.97-.76-5-.16-7.05.83-43.7,21.08-87.33,21.19-131.11.21-2.47-1.18-6.05-1.13-8.8-.43-15.65,3.96-31.09,8.78-46.83,12.29-8.53,1.9-17.51,1.77-26.68,2.59,18.24,50.08,5.32,95.67-19.46,139.86h334.27Z"/>
      <path class="cls-1" d="M540.33,560.51c60.33,0,120.67,0,181,0,12.82,0,15.86,3.1,15.62,15.88-1.51,80.15-63.02,152.54-142.17,163.96-42.16,6.08-85.16,7.61-126.95-3.72-71.98-19.52-123.88-87.47-124.76-161.51-.13-11.09,3.26-14.6,14.35-14.6,60.97-.02,121.95,0,182.92,0ZM364.48,582.13c.53,4.58.93,8.74,1.51,12.88,8.62,61.79,61.29,116.49,123.1,124.71,26.66,3.54,54.1,3.92,80.99,2.38,65.1-3.72,110.44-37,135.86-96.99,5.72-13.5,8.86-27.82,9.36-42.98h-350.82Z"/>
    </g>
  </g>
</svg>