<?xml version="1.0" encoding="UTF-8"?>
<svg id="Livello_1" data-name="Livello 1" xmlns="http://www.w3.org/2000/svg" viewBox="0 0 1080 1080">
  <defs>
    <style>
      .cls-1 {
        fill: #333;
      }

      .cls-1, .cls-2 {
        stroke-width: 0px;
      }

      .cls-2 {
        fill: #efeff1;
      }
    </style>
  </defs>
  <circle class="cls-2" cx="540" cy="540" r="500"/>
  <g id="mxhWMB">
    <g>
      <path class="cls-1" d="M783.97,828.79h-84.49c-.11,2.2-.29,4.33-.3,6.45-.03,15,.07,30-.06,44.99-.06,7.22-4.44,11.8-10.7,11.73-6-.07-10.43-4.52-10.45-11.3-.1-38.38-.1-76.75,0-115.13.02-6.75,4.55-11.17,10.59-11.15,6.04.02,10.45,4.43,10.54,11.2.17,13.63.05,27.26.05,41.29h42.39v-6.09c0-26.03.04-52.05-.01-78.08-.06-27.2-15.46-47.11-41.87-53.92-19.01-4.9-38.13-9.34-57.1-14.39-4.55-1.21-7.44.24-10.72,2.8-25.86,20.22-54.52,34.96-86.44,42.99-3.44.87-7.49.82-10.93-.05-31.67-8.06-60.21-22.57-85.84-42.73-4.06-3.2-7.57-3.94-12.61-2.59-18.1,4.86-36.35,9.15-54.54,13.7-27.46,6.86-42.88,26.67-42.91,55.11-.03,27.55,0,55.11,0,83.16h42.38c0-9.18,0-18.36,0-27.55,0-5.07-.24-10.17.15-15.21.45-5.77,5.19-9.9,10.69-9.59,5.86.33,9.24,3.68,10.3,9.38.16.86.1,1.76.1,2.64,0,37.72,0,75.43,0,113.15,0,.44,0,.88-.02,1.32-.41,6.71-4.72,11.13-10.74,11.05-6.01-.08-10.36-4.53-10.43-11.32-.16-14.78-.06-29.55-.06-44.33,0-2.37,0-4.75,0-7.47h-84.8c0,2.05,0,4.15,0,6.25,0,15,.08,30-.04,44.99-.06,7.26-4.33,11.86-10.56,11.88-6.25.02-10.61-4.57-10.61-11.82-.04-55.14-.69-110.29.26-165.42.87-50.24,38.31-94.71,88.2-107.21,13.05-3.27,26.16-6.31,39.16-9.78,3.75-1,7.42-2.77,10.72-4.82,7.5-4.65,14.58-9.98,22.17-14.47,3.94-2.33,8.6-3.46,14.44-5.72,1.78-6.93,4.31-15.8,6.15-24.8.41-2.01-1.01-5.07-2.58-6.69-19.25-20.01-32.84-42.98-38.33-70.46-.37-1.86-2.59-3.93-4.46-4.83-20.95-10.07-34.45-39.07-28.19-61.45.86-3.09,2.24-6.74,4.6-8.56,4.63-3.59,4.56-8.03,4.51-12.91-.18-20.06-.61-40.15,4.44-59.83,11.27-43.97,43.86-71.8,90.36-75.61,23.52-1.93,47.24-1.32,70.78-3.03,11.53-.83,23.06-3.66,34.25-6.81,9.73-2.74,17.46-9.15,23.67-17.3,5.9-7.74,11.56-8.18,18.94-1.61,25.25,22.47,38.47,51.66,46.48,83.65,6.89,27.54,9.34,55.58,8.62,83.94-.06,2.24.2,5.3,1.6,6.63,8.7,8.31,9.65,18.8,7.83,29.43-3.29,19.25-11.17,35.74-30.64,44.09-1.43.61-2.75,2.78-3.09,4.44-5.63,26.89-18.82,49.69-37.63,69.41-2.85,2.99-4.1,5.54-2.74,9.86,2.5,7.95,4.15,16.16,5.77,22.69,5.48,1.98,10.61,2.57,14.04,5.28,18.26,14.45,39.07,22.38,61.76,26.65,28.89,5.43,53.67,18.55,72.53,41.6,16.9,20.67,26.32,44.4,26.52,71.1.4,53.81.15,107.63.13,161.45,0,8.17-4.26,13.07-10.89,12.89-6.38-.18-10.3-4.9-10.33-12.79-.06-16.54-.02-33.07-.02-50.38ZM465.87,346.95c-4.13,11.12-7.15,22.03-12.15,31.95-5.02,9.95-12.03,18.88-18.12,28.3-.69,1.07-1.52,2.36-1.48,3.53.56,18.69-1.24,37.88,2.41,55.96,8.66,42.86,36.86,71.06,75.2,89.87,14.71,7.22,30.08,9.24,46.27,4.42,44.52-13.25,83.37-59.59,87.68-105.68.92-9.84-.43-19.9.59-29.72,1.69-16.19-3.98-30.14-10.74-44.17-4.82-10-11.97-16.19-22.99-17.51-19.26-2.3-38.52-4.78-57.83-6.52-29.85-2.69-59.97-2.92-88.83-10.43ZM626.02,240.62c-19.46,18.87-43.69,23.86-68.95,25.34-23.12,1.35-46.41.68-69.42,2.94-31.68,3.11-55.95,18.09-67.76,49.19-8.67,22.84-7.13,46.67-6.92,69.55,6.49,5.38,9.7,2.25,13.09-2.9,10.75-16.33,18.03-33.69,18.62-53.55.27-9.16,7.99-13.07,16.47-9.31,5.79,2.57,11.82,5.12,18.01,6.18,13.68,2.33,27.49,4.06,41.3,5.41,29.2,2.85,58.46,5.12,87.67,7.97,23.16,2.26,40.41,12.93,48.79,35.63,1.58,4.27,3.79,8.31,5.7,12.45.66.18,1.32.36,1.99.54,1.05-2.03,2.97-4.05,3-6.1.61-35.98-3.43-71.24-17.21-104.87-5.8-14.14-13.45-27.12-24.37-38.46ZM475.47,559.31c-2.78,10.4-4.51,19.98-8,28.87-2.21,5.63-.73,8.22,3.35,11.48,20.03,16.01,42.84,26.87,66.47,36.24,1.64.65,4,.6,5.66-.05,22-8.65,43.32-18.65,62.25-33.06,9.18-6.99,9.09-7.03,6.2-17.78-2.15-8-4.16-16.05-6.54-25.26-43.45,33.24-86.38,32.56-129.39-.44ZM317.33,807.11c0-2.91,0-5.29,0-7.67,0-26.69-.19-53.37.08-80.06.3-30.11,18.7-56.71,46.89-67.51,8.4-3.22,17.32-5.08,26.06-7.38,10.92-2.88,21.88-5.57,33.44-8.5-4.86-5.64-8.82-10.67-13.29-15.18-1.28-1.29-4.25-1.88-6.14-1.46-11.62,2.61-23.18,5.45-34.69,8.5-45.48,12.04-73.4,48.31-73.49,95.39-.05,25.8,0,51.61,0,77.41v6.45h21.17ZM783.94,806.96c0-29.65.73-58.76-.18-87.81-1.2-38.55-19.14-67.9-54.35-84.02-17.41-7.97-37.02-11.16-55.67-16.38-.97-.27-2.68.33-3.38,1.11-4.64,5.17-9.1,10.51-13.96,16.18,16.85,4.25,32.9,8.21,48.91,12.35,35.31,9.11,57.36,37.4,57.48,73.78.08,25.8.02,51.61.02,77.41,0,2.36,0,4.72,0,7.38h21.14ZM428.2,608.7c29.89,34.18,65.39,57.73,108.15,69.98,2.73.78,6.13.4,8.93-.41,30.78-8.87,58.18-24.06,82.27-45.07,8.56-7.46,16.59-15.52,25.43-23.83-5.76-3.81-9.76-6.46-14.03-9.28-5.2,5.21-9.81,10.6-15.19,15.08-23.7,19.75-51.35,32.36-79.97,42.99-2.74,1.02-6.69.5-9.5-.67-13.42-5.59-26.86-11.19-39.87-17.65-20.03-9.95-38.46-22.3-53.23-39.74-4.41,2.92-8.39,5.56-12.99,8.61ZM412.77,439.78c0-8.49-.11-16.98.04-25.46.09-4.87-3.64-5.35-6.62-5.15-1.42.1-3.68,3.36-3.74,5.24-.28,9.66,2.75,18.34,10.32,25.37ZM667.36,439.6c7.28-6.67,10.49-15.05,10.33-24.55-.04-2.08-2.31-5.69-3.85-5.85-3.45-.37-6.8.84-6.58,5.95.35,8.14.09,16.3.09,24.45Z"/>
      <path class="cls-1" d="M656.73,785.95c.08,17.59-14.36,32.01-31.98,31.93-17.32-.08-31.57-14.31-31.65-31.61-.07-17.6,14.35-32,31.98-31.92,17.35.08,31.57,14.27,31.65,31.6ZM624.65,775.6c-5.73.15-10.41,5.06-10.26,10.77.15,5.71,5.09,10.4,10.79,10.25,5.71-.15,10.41-5.09,10.26-10.78-.15-5.72-5.08-10.39-10.79-10.24Z"/>
      <path class="cls-1" d="M567.28,309.63c-3.29,0-4.62.08-5.93-.01-6.23-.42-10.56-4.68-10.64-10.43-.08-5.76,4.12-9.93,10.36-10.74,8.7-1.13,17.77-1.32,25.91-4.14,6.71-2.32,12.78-7.34,18.22-12.17,5.16-4.59,10.27-6.2,15.25-2.61,5.17,3.73,5.97,9.7,1.68,15.7-10.19,14.26-25.26,19.94-41.69,22.9-4.97.9-10.06,1.17-13.15,1.51Z"/>
    </g>
  </g>
</svg>