<?xml version="1.0" encoding="UTF-8"?>
<svg id="Livello_2" data-name="Livello 2" xmlns="http://www.w3.org/2000/svg" viewBox="0 0 909.04 146.28">
  <defs>
    <style>
      .cls-1 {
        fill: #f0f0f2;
        stroke-width: 0px;
      }
    </style>
  </defs>
  <g id="Livello_1-2" data-name="Livello 1">
    <g>
      <path class="cls-1" d="M98.18,8.18h-38L0,144.53h39.32l39.56-98.6,39.56,98.6h40.1L98.18,8.18Z"/>
      <path class="cls-1" d="M230.39,114.35c-3.25,2.16-6.97,3.31-11.24,3.31-3.43,0-6.07-1.08-8.12-3.25-1.98-2.16-3.01-5.11-3.01-8.84v-35.05h24.17v-27.72h-24.17V15.39h-37.04v27.42h-15.39v27.72h15.39v35.41c0,13.41,3.73,23.45,11.12,30.18,7.39,6.79,17.98,10.16,31.74,10.16,5.05,0,9.86-.54,14.31-1.56,4.51-1.02,8.3-2.53,11.42-4.51l-9.2-25.85Z"/>
      <path class="cls-1" d="M354.18,48.88c-7.94-7.82-18.52-11.66-31.62-11.66-6.25,0-12.08.96-17.56,2.89-5.41,1.92-10.16,4.81-14.19,8.6V0h-37.03v144.53h37.03v-51.04c0-8.3,1.92-14.55,5.71-18.7,3.85-4.15,8.96-6.25,15.33-6.25,11.54,0,17.32,7.21,17.32,21.64v54.35h37.04v-60.42c0-15.69-4.03-27.48-12.02-35.23Z"/>
      <path class="cls-1" d="M389.35,0v144.53h37.04V0h-37.04Z"/>
      <path class="cls-1" d="M558.23,91.93c0-11.3-2.53-21.1-7.52-29.34-4.99-8.24-11.78-14.55-20.32-18.88-8.6-4.33-18.16-6.49-28.68-6.49s-20.92,2.28-29.76,6.97c-8.84,4.69-15.75,11.12-20.74,19.36-4.99,8.3-7.52,17.62-7.52,27.96s2.59,19.96,7.7,28.26c5.11,8.3,12.39,14.79,21.7,19.48,9.38,4.69,20.2,7.03,32.53,7.03,19.78,0,34.75-5.71,45.03-17.13l-19.48-20.26c-3.79,3.25-7.52,5.59-11.24,6.97-3.67,1.44-8.06,2.16-13.11,2.16-6.79,0-12.39-1.44-16.89-4.39-4.45-2.89-7.46-7.09-9.02-12.57h76.72c.42-5.83.6-8.9.6-9.14ZM480.31,81.59c1.02-5.59,3.49-9.98,7.34-13.23,3.79-3.25,8.6-4.87,14.31-4.87s10.46,1.62,14.31,4.87c3.85,3.25,6.25,7.64,7.27,13.23h-43.23Z"/>
      <path class="cls-1" d="M639.09,114.35c-3.25,2.16-7.03,3.31-11.3,3.31-3.37,0-6.07-1.08-8.12-3.25-1.98-2.16-3.01-5.11-3.01-8.84v-35.05h24.17v-27.72h-24.17V15.39h-37.03v27.42h-15.33v27.72h15.33v35.41c0,13.41,3.73,23.45,11.12,30.18,7.4,6.79,17.98,10.16,31.74,10.16,5.05,0,9.86-.54,14.31-1.56,4.51-1.02,8.3-2.53,11.42-4.51l-9.14-25.85Z"/>
      <path class="cls-1" d="M767.27,91.93c0-11.3-2.53-21.1-7.52-29.34-4.99-8.24-11.78-14.55-20.38-18.88-8.54-4.33-18.1-6.49-28.62-6.49-11.06,0-20.98,2.28-29.82,6.97-8.84,4.69-15.75,11.12-20.74,19.36-4.99,8.3-7.46,17.62-7.46,27.96s2.53,19.96,7.64,28.26c5.17,8.3,12.39,14.79,21.76,19.48,9.32,4.69,20.2,7.03,32.53,7.03,19.72,0,34.75-5.71,44.97-17.13l-19.48-20.26c-3.73,3.25-7.52,5.59-11.18,6.97-3.73,1.44-8.06,2.16-13.17,2.16-6.73,0-12.39-1.44-16.83-4.39-4.51-2.89-7.52-7.09-9.08-12.57h76.78c.36-5.83.6-8.9.6-9.14ZM689.36,81.59c1.02-5.59,3.43-9.98,7.27-13.23,3.85-3.25,8.6-4.87,14.31-4.87s10.52,1.62,14.31,4.87c3.85,3.25,6.31,7.64,7.34,13.23h-43.23Z"/>
      <path class="cls-1" d="M905.91,8.18h-41.66l-99.74,136.36h44.01L905.91,8.18ZM878.38,101.79l-21.94,30.48,8.18,12.26h44.43l-30.66-42.75ZM797.25,50.93l21.94-30.48-8.18-12.26h-44.43l30.66,42.75Z"/>
    </g>
  </g>
</svg>